<?xml version="1.0" standalone="no"?>
<!DOCTYPE svg PUBLIC "-//W3C//DTD SVG 20010904//EN"
 "http://www.w3.org/TR/2001/REC-SVG-20010904/DTD/svg10.dtd">
<svg version="1.0" xmlns="http://www.w3.org/2000/svg"
 width="1280.000000pt" height="1280.000000pt" viewBox="0 0 1280.000000 1280.000000"
 preserveAspectRatio="xMidYMid meet">
<metadata>
Created by potrace 1.14, written by Peter Selinger 2001-2017
</metadata>
<g transform="translate(0.000000,1280.000000) scale(0.100000,-0.100000)"
fill="#000000" stroke="none">
<path d="M1255 12793 c-110 -14 -343 -75 -392 -102 -10 -6 -50 -26 -88 -44
-75 -36 -195 -112 -232 -146 -12 -12 -25 -21 -28 -21 -7 0 -172 -165 -200
-200 -46 -58 -72 -96 -73 -104 0 -5 -4 -12 -9 -15 -14 -9 -84 -131 -75 -131 4
0 2 -4 -4 -8 -23 -16 -104 -231 -119 -317 -4 -22 -9 -49 -12 -60 -2 -11 -7
-40 -11 -65 -10 -63 -9 -10302 1 -10370 4 -30 15 -82 23 -115 9 -33 17 -67 19
-75 17 -77 118 -304 152 -342 9 -10 13 -18 10 -18 -4 0 9 -21 29 -48 20 -26
45 -60 57 -77 45 -62 247 -255 266 -255 5 0 11 -3 13 -8 5 -12 127 -88 194
-121 112 -55 265 -108 364 -125 19 -3 46 -9 60 -13 39 -12 10283 -13 10360 -2
104 16 114 17 138 23 12 3 32 8 44 11 78 17 188 59 303 117 193 97 401 286
526 478 59 90 70 110 63 110 -4 0 0 8 8 18 42 49 115 267 146 432 3 19 7 2353
8 5185 l3 5150 -24 115 c-14 63 -36 151 -51 195 -28 86 -93 228 -106 233 -4 2
-8 8 -8 13 0 6 -18 37 -40 69 -22 32 -40 61 -40 63 0 11 -70 87 -161 177 -195
193 -450 326 -714 374 -16 3 -41 9 -55 13 -25 8 -10288 14 -10345 6z"/>
</g>
</svg>
